<svg width="122" height="38" viewBox="0 0 122 38" fill="none" xmlns="http://www.w3.org/2000/svg">
<g clip-path="url(#clip0_284_2760)">
<path d="M91 14.1381V23.881C91 25.5526 92.7813 26.6214 94.2563 25.8347L111.971 16.3871C112.692 16.0022 113.143 15.2511 113.143 14.4333V4.69049C113.143 3.01888 111.362 1.95007 109.887 2.73671L92.1723 12.1843C91.4507 12.5692 91 13.3203 91 14.1381Z" fill="#2684FF"/>
<path opacity="0.3" d="M99.8569 24.1762V33.9191C99.8569 35.5907 101.638 36.6595 103.113 35.8728L120.828 26.4252C121.549 26.0403 122 25.2893 122 24.4714V14.7286C122 13.057 120.218 11.9881 118.743 12.7748L101.029 22.2225C100.308 22.6072 99.8569 23.3584 99.8569 24.1762Z" fill="#0066FF"/>
</g>
<g clip-path="url(#clip1_284_2760)">
<path d="M61.5154 1.7749C62.2726 1.7749 62.9639 2.2027 63.3018 2.88005L69.508 15.2925L76.0459 28.3729C76.193 28.6669 76.2653 28.9927 76.2563 29.3213C76.2473 29.65 76.1573 29.9713 75.9943 30.2568C75.8313 30.5423 75.6004 30.7832 75.3219 30.958C75.0435 31.1328 74.7262 31.2362 74.3983 31.259L74.2603 31.2644L61.5162 28.7302L53.5244 15.2909L59.7306 2.87928C59.8962 2.54741 60.151 2.26826 60.4664 2.07318C60.7818 1.8781 61.1446 1.7748 61.5154 1.7749Z" fill="#FFBB00"/>
<path d="M61.5156 1.7749C62.2727 1.7749 62.964 2.2027 63.3012 2.88005L69.5074 15.2925L61.5156 28.7294L48.7715 31.2637C48.4309 31.2636 48.0961 31.1765 47.7987 31.0106C47.5013 30.8448 47.2512 30.6056 47.0723 30.3158C46.8934 30.0261 46.7915 29.6954 46.7764 29.3552C46.7613 29.015 46.8334 28.6766 46.9859 28.3721L53.5253 15.2925L59.7315 2.88005C59.8968 2.54827 60.1513 2.26912 60.4665 2.07391C60.7816 1.87871 61.1449 1.77516 61.5156 1.7749Z" fill="url(#paint0_linear_284_2760)"/>
<path d="M61.5154 1.7749C62.2726 1.7749 62.9639 2.2027 63.3018 2.88005L69.508 15.2925L61.5154 28.7294L53.5244 15.2909L59.7306 2.87928C59.8853 2.56864 60.1184 2.30374 60.4068 2.11074C60.6952 1.91774 61.029 1.80332 61.3752 1.77878L61.5154 1.7749Z" fill="url(#paint1_linear_284_2760)"/>
</g>
<path d="M16 7.73364L22.056 14.6856C22.3734 15.0498 22.5482 15.5166 22.5482 15.9996C22.5482 16.4827 22.3734 16.9495 22.056 17.3136L16 24.2664L9.94402 17.3136C9.62686 16.9495 9.45215 16.4829 9.45215 16C9.45215 15.5172 9.62686 15.0506 9.94402 14.6864L16 7.73364Z" fill="url(#paint2_linear_284_2760)"/>
<path d="M16 24.2664L19.3504 28.1136C19.5382 28.3292 19.7701 28.502 20.0303 28.6204C20.2906 28.7388 20.5733 28.8 20.8592 28.8H27.6C28.1304 28.8 28.6391 28.5892 29.0142 28.2142C29.3893 27.8391 29.6 27.3304 29.6 26.8V5.19995C29.6 4.66952 29.3893 4.16081 29.0142 3.78574C28.6391 3.41066 28.1304 3.19995 27.6 3.19995H20.8592C20.5733 3.19986 20.2906 3.26108 20.0303 3.37948C19.7701 3.49789 19.5382 3.67073 19.3504 3.88635L16 7.73355L22.056 14.6864C22.3732 15.0505 22.5479 15.5171 22.5479 16C22.5479 16.4828 22.3732 16.9494 22.056 17.3136L16 24.2664Z" fill="#00D924"/>
<path d="M15.9999 7.73355L9.9439 14.6864C9.62674 15.0505 9.45203 15.5171 9.45203 16C9.45203 16.4828 9.62674 16.9494 9.9439 17.3136L15.9999 24.2664L12.6495 28.1136C12.4617 28.3292 12.2298 28.502 11.9696 28.6204C11.7093 28.7388 11.4266 28.8 11.1407 28.8H4.3999C3.86947 28.8 3.36076 28.5892 2.98569 28.2142C2.61062 27.8391 2.3999 27.3304 2.3999 26.8V5.19995C2.3999 4.66952 2.61062 4.16081 2.98569 3.78574C3.36076 3.41066 3.86947 3.19995 4.3999 3.19995H11.1407C11.4266 3.19986 11.7093 3.26108 11.9696 3.37948C12.2298 3.49789 12.4617 3.67073 12.6495 3.88635L15.9999 7.73355Z" fill="url(#paint3_linear_284_2760)"/>
<defs>
<linearGradient id="paint0_linear_284_2760" x1="58.1288" y1="15.1522" x2="58.0622" y2="31.2637" gradientUnits="userSpaceOnUse">
<stop stop-color="#FFD748"/>
<stop offset="0.536" stop-color="#FFCD48"/>
<stop offset="1" stop-color="#FFCB48"/>
</linearGradient>
<linearGradient id="paint1_linear_284_2760" x1="61.5178" y1="27.7847" x2="61.5178" y2="12.8869" gradientUnits="userSpaceOnUse">
<stop stop-color="#FFAD00"/>
<stop offset="1" stop-color="#FF7600"/>
</linearGradient>
<linearGradient id="paint2_linear_284_2760" x1="3.20002" y1="15.6" x2="32.8" y2="15.6" gradientUnits="userSpaceOnUse">
<stop stop-color="#00D924"/>
<stop offset="1" stop-color="#00A600"/>
</linearGradient>
<linearGradient id="paint3_linear_284_2760" x1="21.9999" y1="16" x2="0.00790181" y2="15.5776" gradientUnits="userSpaceOnUse">
<stop stop-color="#11EFE3"/>
<stop offset="1" stop-color="#21CFE0"/>
</linearGradient>
<clipPath id="clip0_284_2760">
<rect width="31" height="36.9048" fill="white" transform="translate(91 1)"/>
</clipPath>
<clipPath id="clip1_284_2760">
<rect width="31" height="31" fill="white" transform="translate(46 1)"/>
</clipPath>
</defs>
</svg>
