<svg width="25" height="27" viewBox="0 0 25 27" fill="none" xmlns="http://www.w3.org/2000/svg">
<path fill-rule="evenodd" clip-rule="evenodd" d="M9.74523 0.763632L2.77246 4.81608C1.16774 5.74871 0.179199 7.47229 0.179199 9.33755V17.4838C0.179199 19.349 1.16774 21.0726 2.77246 22.0053L9.78078 26.0784C11.3855 27.011 13.3626 27.011 14.9673 26.0784L19.3295 23.5431L9.78616 17.9378C8.19304 17.0021 7.21346 15.2851 7.21346 13.4284V5.27229C7.21346 3.28796 8.26649 1.672 9.74832 0.785271C9.78836 0.761312 9.77874 0.744156 9.74523 0.763632Z" fill="url(#paint0_linear_12_18819)"/>
<path fill-rule="evenodd" clip-rule="evenodd" d="M24.6307 9.29228L24.6344 17.3907C24.6344 17.4296 24.6149 17.4294 24.6142 17.3825C24.6033 16.5523 23.0539 16.0731 21.442 15.5746C19.688 15.0322 17.86 14.467 17.86 13.4014C17.86 11.3736 17.2543 10.7511 16.8319 10.317L16.8213 10.3062C16.4687 9.94368 16.3409 9.86066 16.0923 9.6991C16.0428 9.66695 15.9885 9.63168 15.9267 9.59048C15.6043 9.37553 15.4881 9.31744 15.0745 9.11071L15.0321 9.08949C14.5836 8.86525 14.1732 8.69585 14.1732 8.69585C11.9545 7.90857 11.3071 7.80929 10.0221 8.83899C10.0221 8.83899 8.51913 10.3062 7.94657 11.6303C7.39908 12.8963 7.24205 14.015 7.45042 14.7521C8.51747 16.8493 9.07666 17.222 10.2137 17.98C10.2671 18.0156 10.3217 18.052 10.3778 18.0895C10.3778 18.0895 12.6194 19.4831 13.8941 18.8458C15.0766 18.2545 19.8251 21.9186 19.8251 21.9186L14.7881 26.0784C13.1834 27.011 11.2063 27.011 9.60158 26.0784L2.59326 22.0053C0.988544 21.0726 0 19.3491 0 17.4838V9.33758C0 7.47231 0.988544 5.74874 2.59326 4.81611L9.56603 0.76366C9.59954 0.744183 9.60916 0.761339 9.56912 0.785299C9.48884 0.833342 9.40859 0.901087 9.32863 0.986572L9.82673 0.697701C11.4323 -0.233431 13.411 -0.232509 15.0174 0.700122L22.0333 4.77324C23.6397 5.70587 24.6298 7.42852 24.6307 9.29228Z" fill="url(#paint1_linear_12_18819)"/>
<path fill-rule="evenodd" clip-rule="evenodd" d="M2.90992 22.2083L9.94062 26.3074C11.5618 27.2435 13.6094 27.2248 15.2315 26.2871L22.3155 22.1921C23.9376 21.2545 24.9373 19.5225 24.9382 17.6488L24.942 9.46532C24.9429 7.59153 23.9447 5.86055 22.3235 4.92441L17.9166 2.37964C17.9166 2.37964 17.8696 11.6876 17.8602 13.5528C17.8508 15.4179 16.8522 17.1387 15.2376 18.0721L8.14498 22.172C6.41938 23.1695 4.4825 23.0599 2.96327 22.2083C2.92222 22.1853 2.87607 22.1887 2.90992 22.2083Z" fill="url(#paint2_linear_12_18819)"/>
<defs>
<linearGradient id="paint0_linear_12_18819" x1="9.75435" y1="0.755188" x2="9.75435" y2="26.7778" gradientUnits="userSpaceOnUse">
<stop stop-color="#AD7EE1"/>
<stop offset="1" stop-color="#2A64BB"/>
</linearGradient>
<linearGradient id="paint1_linear_12_18819" x1="1.26177" y1="6.40987" x2="19.0818" y2="17.3135" gradientUnits="userSpaceOnUse">
<stop stop-color="#2F99FF"/>
<stop offset="0.640625" stop-color="#2269F5"/>
<stop offset="1" stop-color="#002C7D"/>
</linearGradient>
<linearGradient id="paint2_linear_12_18819" x1="13.9574" y1="28.7751" x2="26.3896" y2="10.3142" gradientUnits="userSpaceOnUse">
<stop stop-color="#24A5FA"/>
<stop offset="0.144893" stop-color="#23AEFE"/>
<stop offset="0.486653" stop-color="#55C7FF"/>
<stop offset="0.723512" stop-color="#57C6FF"/>
<stop offset="1" stop-color="#24A5F9"/>
</linearGradient>
</defs>
</svg>
